<mxfile host="app.diagrams.net" modified="2022-11-09T22:12:30.458Z" agent="5.0 (X11; Linux x86_64) AppleWebKit/537.36 (KHTML, like Gecko) Chrome/107.0.0.0 Safari/537.36" etag="mVrN7TvP-NmYr21HkD3S" version="20.5.3" type="github">
  <diagram id="V6__2E8lryWFU6AOz-hY" name="Page-1">
    <mxGraphModel dx="848" dy="534" grid="1" gridSize="10" guides="1" tooltips="1" connect="1" arrows="1" fold="1" page="1" pageScale="1" pageWidth="850" pageHeight="1100" math="0" shadow="0">
      <root>
        <mxCell id="0" />
        <mxCell id="1" parent="0" />
        <mxCell id="xw2OxD0ISj9zIhtmK7gy-1" value="Basket" style="swimlane;fontStyle=2;align=center;verticalAlign=top;childLayout=stackLayout;horizontal=1;startSize=26;horizontalStack=0;resizeParent=1;resizeLast=0;collapsible=1;marginBottom=0;rounded=0;shadow=0;strokeWidth=1;" vertex="1" parent="1">
          <mxGeometry x="50" y="112" width="160" height="216" as="geometry">
            <mxRectangle x="230" y="140" width="160" height="26" as="alternateBounds" />
          </mxGeometry>
        </mxCell>
        <mxCell id="xw2OxD0ISj9zIhtmK7gy-3" value="" style="line;html=1;strokeWidth=1;align=left;verticalAlign=middle;spacingTop=-1;spacingLeft=3;spacingRight=3;rotatable=0;labelPosition=right;points=[];portConstraint=eastwest;" vertex="1" parent="xw2OxD0ISj9zIhtmK7gy-1">
          <mxGeometry y="26" width="160" height="8" as="geometry" />
        </mxCell>
        <mxCell id="xw2OxD0ISj9zIhtmK7gy-4" value="fillBasket()" style="text;align=left;verticalAlign=top;spacingLeft=4;spacingRight=4;overflow=hidden;rotatable=0;points=[[0,0.5],[1,0.5]];portConstraint=eastwest;" vertex="1" parent="xw2OxD0ISj9zIhtmK7gy-1">
          <mxGeometry y="34" width="160" height="26" as="geometry" />
        </mxCell>
        <mxCell id="xw2OxD0ISj9zIhtmK7gy-45" value="quantitiyProduct()" style="text;align=left;verticalAlign=top;spacingLeft=4;spacingRight=4;overflow=hidden;rotatable=0;points=[[0,0.5],[1,0.5]];portConstraint=eastwest;" vertex="1" parent="xw2OxD0ISj9zIhtmK7gy-1">
          <mxGeometry y="60" width="160" height="26" as="geometry" />
        </mxCell>
        <mxCell id="xw2OxD0ISj9zIhtmK7gy-58" value="addProduct()" style="text;align=left;verticalAlign=top;spacingLeft=4;spacingRight=4;overflow=hidden;rotatable=0;points=[[0,0.5],[1,0.5]];portConstraint=eastwest;" vertex="1" parent="xw2OxD0ISj9zIhtmK7gy-1">
          <mxGeometry y="86" width="160" height="26" as="geometry" />
        </mxCell>
        <mxCell id="xw2OxD0ISj9zIhtmK7gy-51" value="removeProduct()" style="text;align=left;verticalAlign=top;spacingLeft=4;spacingRight=4;overflow=hidden;rotatable=0;points=[[0,0.5],[1,0.5]];portConstraint=eastwest;" vertex="1" parent="xw2OxD0ISj9zIhtmK7gy-1">
          <mxGeometry y="112" width="160" height="26" as="geometry" />
        </mxCell>
        <mxCell id="xw2OxD0ISj9zIhtmK7gy-64" value="confirmBasket" style="text;align=left;verticalAlign=top;spacingLeft=4;spacingRight=4;overflow=hidden;rotatable=0;points=[[0,0.5],[1,0.5]];portConstraint=eastwest;" vertex="1" parent="xw2OxD0ISj9zIhtmK7gy-1">
          <mxGeometry y="138" width="160" height="26" as="geometry" />
        </mxCell>
        <mxCell id="xw2OxD0ISj9zIhtmK7gy-65" value="cancelBasket()" style="text;align=left;verticalAlign=top;spacingLeft=4;spacingRight=4;overflow=hidden;rotatable=0;points=[[0,0.5],[1,0.5]];portConstraint=eastwest;" vertex="1" parent="xw2OxD0ISj9zIhtmK7gy-1">
          <mxGeometry y="164" width="160" height="26" as="geometry" />
        </mxCell>
        <mxCell id="xw2OxD0ISj9zIhtmK7gy-70" value="payBAsket()" style="text;align=left;verticalAlign=top;spacingLeft=4;spacingRight=4;overflow=hidden;rotatable=0;points=[[0,0.5],[1,0.5]];portConstraint=eastwest;" vertex="1" parent="xw2OxD0ISj9zIhtmK7gy-1">
          <mxGeometry y="190" width="160" height="26" as="geometry" />
        </mxCell>
        <mxCell id="xw2OxD0ISj9zIhtmK7gy-16" value="Products" style="swimlane;fontStyle=0;align=center;verticalAlign=top;childLayout=stackLayout;horizontal=1;startSize=26;horizontalStack=0;resizeParent=1;resizeLast=0;collapsible=1;marginBottom=0;rounded=0;shadow=0;strokeWidth=1;" vertex="1" parent="1">
          <mxGeometry x="479.99999999999994" y="116" width="160" height="112" as="geometry">
            <mxRectangle x="340" y="380" width="170" height="26" as="alternateBounds" />
          </mxGeometry>
        </mxCell>
        <mxCell id="xw2OxD0ISj9zIhtmK7gy-17" value="NameÂ " style="text;align=left;verticalAlign=top;spacingLeft=4;spacingRight=4;overflow=hidden;rotatable=0;points=[[0,0.5],[1,0.5]];portConstraint=eastwest;" vertex="1" parent="xw2OxD0ISj9zIhtmK7gy-16">
          <mxGeometry y="26" width="160" height="26" as="geometry" />
        </mxCell>
        <mxCell id="xw2OxD0ISj9zIhtmK7gy-43" value="Description" style="text;align=left;verticalAlign=top;spacingLeft=4;spacingRight=4;overflow=hidden;rotatable=0;points=[[0,0.5],[1,0.5]];portConstraint=eastwest;" vertex="1" parent="xw2OxD0ISj9zIhtmK7gy-16">
          <mxGeometry y="52" width="160" height="26" as="geometry" />
        </mxCell>
        <mxCell id="xw2OxD0ISj9zIhtmK7gy-18" value="Unit Price" style="text;align=left;verticalAlign=top;spacingLeft=4;spacingRight=4;overflow=hidden;rotatable=0;points=[[0,0.5],[1,0.5]];portConstraint=eastwest;" vertex="1" parent="xw2OxD0ISj9zIhtmK7gy-16">
          <mxGeometry y="78" width="160" height="26" as="geometry" />
        </mxCell>
        <mxCell id="xw2OxD0ISj9zIhtmK7gy-19" value="" style="line;html=1;strokeWidth=1;align=left;verticalAlign=middle;spacingTop=-1;spacingLeft=3;spacingRight=3;rotatable=0;labelPosition=right;points=[];portConstraint=eastwest;" vertex="1" parent="xw2OxD0ISj9zIhtmK7gy-16">
          <mxGeometry y="104" width="160" height="8" as="geometry" />
        </mxCell>
        <mxCell id="xw2OxD0ISj9zIhtmK7gy-28" value="Customer" style="swimlane;fontStyle=0;align=center;verticalAlign=top;childLayout=stackLayout;horizontal=1;startSize=26;horizontalStack=0;resizeParent=1;resizeLast=0;collapsible=1;marginBottom=0;rounded=0;shadow=0;strokeWidth=1;" vertex="1" parent="1">
          <mxGeometry x="340" y="350" width="160" height="86" as="geometry">
            <mxRectangle x="340" y="380" width="170" height="26" as="alternateBounds" />
          </mxGeometry>
        </mxCell>
        <mxCell id="xw2OxD0ISj9zIhtmK7gy-2" value="First name" style="text;align=left;verticalAlign=top;spacingLeft=4;spacingRight=4;overflow=hidden;rotatable=0;points=[[0,0.5],[1,0.5]];portConstraint=eastwest;" vertex="1" parent="xw2OxD0ISj9zIhtmK7gy-28">
          <mxGeometry y="26" width="160" height="26" as="geometry" />
        </mxCell>
        <mxCell id="xw2OxD0ISj9zIhtmK7gy-67" value="Last name" style="text;align=left;verticalAlign=top;spacingLeft=4;spacingRight=4;overflow=hidden;rotatable=0;points=[[0,0.5],[1,0.5]];portConstraint=eastwest;" vertex="1" parent="xw2OxD0ISj9zIhtmK7gy-28">
          <mxGeometry y="52" width="160" height="26" as="geometry" />
        </mxCell>
        <mxCell id="xw2OxD0ISj9zIhtmK7gy-29" value="" style="line;html=1;strokeWidth=1;align=left;verticalAlign=middle;spacingTop=-1;spacingLeft=3;spacingRight=3;rotatable=0;labelPosition=right;points=[];portConstraint=eastwest;" vertex="1" parent="xw2OxD0ISj9zIhtmK7gy-28">
          <mxGeometry y="78" width="160" height="8" as="geometry" />
        </mxCell>
        <mxCell id="xw2OxD0ISj9zIhtmK7gy-30" value="" style="endArrow=none;html=1;rounded=0;exitX=0.5;exitY=0;exitDx=0;exitDy=0;entryX=1;entryY=0.5;entryDx=0;entryDy=0;" edge="1" parent="1" source="xw2OxD0ISj9zIhtmK7gy-28" target="xw2OxD0ISj9zIhtmK7gy-51">
          <mxGeometry width="50" height="50" relative="1" as="geometry">
            <mxPoint x="310" y="260" as="sourcePoint" />
            <mxPoint x="310" y="210" as="targetPoint" />
          </mxGeometry>
        </mxCell>
        <mxCell id="xw2OxD0ISj9zIhtmK7gy-42" value="" style="endArrow=none;html=1;rounded=0;entryX=0;entryY=0.5;entryDx=0;entryDy=0;exitX=1;exitY=0.5;exitDx=0;exitDy=0;" edge="1" parent="1" source="xw2OxD0ISj9zIhtmK7gy-51" target="xw2OxD0ISj9zIhtmK7gy-43">
          <mxGeometry width="50" height="50" relative="1" as="geometry">
            <mxPoint x="400" y="135" as="sourcePoint" />
            <mxPoint x="470" y="135" as="targetPoint" />
          </mxGeometry>
        </mxCell>
        <mxCell id="xw2OxD0ISj9zIhtmK7gy-44" value="" style="endArrow=none;html=1;rounded=0;exitX=0.5;exitY=0;exitDx=0;exitDy=0;entryX=0;entryY=0.5;entryDx=0;entryDy=0;" edge="1" parent="1" source="xw2OxD0ISj9zIhtmK7gy-28" target="xw2OxD0ISj9zIhtmK7gy-43">
          <mxGeometry width="50" height="50" relative="1" as="geometry">
            <mxPoint x="400" y="300" as="sourcePoint" />
            <mxPoint x="450" y="250" as="targetPoint" />
          </mxGeometry>
        </mxCell>
        <mxCell id="xw2OxD0ISj9zIhtmK7gy-59" value="Credit Card" style="swimlane;fontStyle=0;align=center;verticalAlign=top;childLayout=stackLayout;horizontal=1;startSize=26;horizontalStack=0;resizeParent=1;resizeLast=0;collapsible=1;marginBottom=0;rounded=0;shadow=0;strokeWidth=1;" vertex="1" parent="1">
          <mxGeometry x="50" y="400" width="160" height="120" as="geometry">
            <mxRectangle x="340" y="380" width="170" height="26" as="alternateBounds" />
          </mxGeometry>
        </mxCell>
        <mxCell id="xw2OxD0ISj9zIhtmK7gy-61" value="Cardholders Name" style="text;align=left;verticalAlign=top;spacingLeft=4;spacingRight=4;overflow=hidden;rotatable=0;points=[[0,0.5],[1,0.5]];portConstraint=eastwest;" vertex="1" parent="xw2OxD0ISj9zIhtmK7gy-59">
          <mxGeometry y="26" width="160" height="24" as="geometry" />
        </mxCell>
        <mxCell id="xw2OxD0ISj9zIhtmK7gy-63" value="Card Number" style="text;align=left;verticalAlign=top;spacingLeft=4;spacingRight=4;overflow=hidden;rotatable=0;points=[[0,0.5],[1,0.5]];portConstraint=eastwest;" vertex="1" parent="xw2OxD0ISj9zIhtmK7gy-59">
          <mxGeometry y="50" width="160" height="24" as="geometry" />
        </mxCell>
        <mxCell id="xw2OxD0ISj9zIhtmK7gy-62" value="Expiration Date" style="text;align=left;verticalAlign=top;spacingLeft=4;spacingRight=4;overflow=hidden;rotatable=0;points=[[0,0.5],[1,0.5]];portConstraint=eastwest;" vertex="1" parent="xw2OxD0ISj9zIhtmK7gy-59">
          <mxGeometry y="74" width="160" height="24" as="geometry" />
        </mxCell>
        <mxCell id="xw2OxD0ISj9zIhtmK7gy-60" value="" style="line;html=1;strokeWidth=1;align=left;verticalAlign=middle;spacingTop=-1;spacingLeft=3;spacingRight=3;rotatable=0;labelPosition=right;points=[];portConstraint=eastwest;" vertex="1" parent="xw2OxD0ISj9zIhtmK7gy-59">
          <mxGeometry y="98" width="160" height="8" as="geometry" />
        </mxCell>
        <mxCell id="xw2OxD0ISj9zIhtmK7gy-68" value="" style="endArrow=none;html=1;rounded=0;exitX=1;exitY=0.5;exitDx=0;exitDy=0;entryX=0.5;entryY=1;entryDx=0;entryDy=0;" edge="1" parent="1" source="xw2OxD0ISj9zIhtmK7gy-63" target="xw2OxD0ISj9zIhtmK7gy-28">
          <mxGeometry width="50" height="50" relative="1" as="geometry">
            <mxPoint x="400" y="300" as="sourcePoint" />
            <mxPoint x="450" y="250" as="targetPoint" />
          </mxGeometry>
        </mxCell>
        <mxCell id="xw2OxD0ISj9zIhtmK7gy-69" value="" style="endArrow=none;html=1;rounded=0;exitX=0.5;exitY=0;exitDx=0;exitDy=0;entryX=0.5;entryY=1;entryDx=0;entryDy=0;" edge="1" parent="1" source="xw2OxD0ISj9zIhtmK7gy-59" target="xw2OxD0ISj9zIhtmK7gy-1">
          <mxGeometry width="50" height="50" relative="1" as="geometry">
            <mxPoint x="400" y="300" as="sourcePoint" />
            <mxPoint x="450" y="250" as="targetPoint" />
          </mxGeometry>
        </mxCell>
      </root>
    </mxGraphModel>
  </diagram>
</mxfile>
